%TF.GenerationSoftware,Flux,Pcbnew,7.0.11-7.0.11~ubuntu20.04.1*%
%TF.CreationDate,2024-08-13T10:52:44+00:00*%
%TF.ProjectId,input,696e7075-742e-46b6-9963-61645f706362,rev?*%
%TF.SameCoordinates,Original*%
%TF.FileFunction,Legend,Top*%
%TF.FilePolarity,Positive*%
%FSLAX46Y46*%
G04 Gerber Fmt 4.6, Leading zero omitted, Abs format (unit mm)*
G04 Filename: wirelessvoltmeter*
G04 Build it with Flux! Visit our site at: https://www.flux.ai (PCBNEW 7.0.11-7.0.11~ubuntu20.04.1) date 2024-08-13 10:52:44*
%MOMM*%
%LPD*%
G01*
G04 APERTURE LIST*
%ADD10C,0.095000*%
%ADD11C,0.120000*%
G04 APERTURE END LIST*
D10*
X-1609523Y23884844D02*
X-1609523Y23237225D01*
X-1609523Y23237225D02*
X-1571428Y23161035D01*
X-1571428Y23161035D02*
X-1533333Y23122940D01*
X-1533333Y23122940D02*
X-1457142Y23084844D01*
X-1457142Y23084844D02*
X-1304761Y23084844D01*
X-1304761Y23084844D02*
X-1228571Y23122940D01*
X-1228571Y23122940D02*
X-1190476Y23161035D01*
X-1190476Y23161035D02*
X-1152380Y23237225D01*
X-1152380Y23237225D02*
X-1152380Y23884844D01*
X-352381Y23084844D02*
X-809524Y23084844D01*
X-580952Y23084844D02*
X-580952Y23884844D01*
X-580952Y23884844D02*
X-657143Y23770559D01*
X-657143Y23770559D02*
X-733333Y23694368D01*
X-733333Y23694368D02*
X-809524Y23656273D01*
X-14433223Y-5509355D02*
X-14433223Y-6156974D01*
X-14433223Y-6156974D02*
X-14395128Y-6233164D01*
X-14395128Y-6233164D02*
X-14357033Y-6271260D01*
X-14357033Y-6271260D02*
X-14280842Y-6309355D01*
X-14280842Y-6309355D02*
X-14128461Y-6309355D01*
X-14128461Y-6309355D02*
X-14052271Y-6271260D01*
X-14052271Y-6271260D02*
X-14014176Y-6233164D01*
X-14014176Y-6233164D02*
X-13976080Y-6156974D01*
X-13976080Y-6156974D02*
X-13976080Y-5509355D01*
X-13633224Y-5585545D02*
X-13595128Y-5547450D01*
X-13595128Y-5547450D02*
X-13518938Y-5509355D01*
X-13518938Y-5509355D02*
X-13328462Y-5509355D01*
X-13328462Y-5509355D02*
X-13252271Y-5547450D01*
X-13252271Y-5547450D02*
X-13214176Y-5585545D01*
X-13214176Y-5585545D02*
X-13176081Y-5661736D01*
X-13176081Y-5661736D02*
X-13176081Y-5737926D01*
X-13176081Y-5737926D02*
X-13214176Y-5852212D01*
X-13214176Y-5852212D02*
X-13671319Y-6309355D01*
X-13671319Y-6309355D02*
X-13176081Y-6309355D01*
X13296833Y9334844D02*
X13296833Y8763416D01*
X13296833Y8763416D02*
X13258738Y8649130D01*
X13258738Y8649130D02*
X13182547Y8572940D01*
X13182547Y8572940D02*
X13068262Y8534844D01*
X13068262Y8534844D02*
X12992071Y8534844D01*
X14096833Y8534844D02*
X13639690Y8534844D01*
X13868262Y8534844D02*
X13868262Y9334844D01*
X13868262Y9334844D02*
X13792071Y9220559D01*
X13792071Y9220559D02*
X13715881Y9144368D01*
X13715881Y9144368D02*
X13639690Y9106273D01*
X-4609523Y-24884355D02*
X-4609523Y-25531974D01*
X-4609523Y-25531974D02*
X-4571428Y-25608164D01*
X-4571428Y-25608164D02*
X-4533333Y-25646260D01*
X-4533333Y-25646260D02*
X-4457142Y-25684355D01*
X-4457142Y-25684355D02*
X-4304761Y-25684355D01*
X-4304761Y-25684355D02*
X-4228571Y-25646260D01*
X-4228571Y-25646260D02*
X-4190476Y-25608164D01*
X-4190476Y-25608164D02*
X-4152380Y-25531974D01*
X-4152380Y-25531974D02*
X-4152380Y-24884355D01*
X-3428571Y-25151021D02*
X-3428571Y-25684355D01*
X-3619047Y-24846260D02*
X-3809524Y-25417688D01*
X-3809524Y-25417688D02*
X-3314285Y-25417688D01*
X-14276133Y6464844D02*
X-14733276Y6464844D01*
X-14504704Y6464844D02*
X-14504704Y7264844D01*
X-14504704Y7264844D02*
X-14580895Y7150559D01*
X-14580895Y7150559D02*
X-14657085Y7074368D01*
X-14657085Y7074368D02*
X-14733276Y7036273D01*
X-13780894Y7264844D02*
X-13704704Y7264844D01*
X-13704704Y7264844D02*
X-13628513Y7226749D01*
X-13628513Y7226749D02*
X-13590418Y7188654D01*
X-13590418Y7188654D02*
X-13552323Y7112463D01*
X-13552323Y7112463D02*
X-13514228Y6960082D01*
X-13514228Y6960082D02*
X-13514228Y6769606D01*
X-13514228Y6769606D02*
X-13552323Y6617225D01*
X-13552323Y6617225D02*
X-13590418Y6541035D01*
X-13590418Y6541035D02*
X-13628513Y6502940D01*
X-13628513Y6502940D02*
X-13704704Y6464844D01*
X-13704704Y6464844D02*
X-13780894Y6464844D01*
X-13780894Y6464844D02*
X-13857085Y6502940D01*
X-13857085Y6502940D02*
X-13895180Y6541035D01*
X-13895180Y6541035D02*
X-13933275Y6617225D01*
X-13933275Y6617225D02*
X-13971371Y6769606D01*
X-13971371Y6769606D02*
X-13971371Y6960082D01*
X-13971371Y6960082D02*
X-13933275Y7112463D01*
X-13933275Y7112463D02*
X-13895180Y7188654D01*
X-13895180Y7188654D02*
X-13857085Y7226749D01*
X-13857085Y7226749D02*
X-13780894Y7264844D01*
X-13171370Y6464844D02*
X-13171370Y7264844D01*
X-13095180Y6769606D02*
X-12866608Y6464844D01*
X-12866608Y6998178D02*
X-13171370Y6693416D01*
X-12561847Y6464844D02*
X-12371370Y6464844D01*
X-12371370Y6464844D02*
X-12371370Y6617225D01*
X-12371370Y6617225D02*
X-12447561Y6655320D01*
X-12447561Y6655320D02*
X-12523751Y6731511D01*
X-12523751Y6731511D02*
X-12561847Y6845797D01*
X-12561847Y6845797D02*
X-12561847Y7036273D01*
X-12561847Y7036273D02*
X-12523751Y7150559D01*
X-12523751Y7150559D02*
X-12447561Y7226749D01*
X-12447561Y7226749D02*
X-12333275Y7264844D01*
X-12333275Y7264844D02*
X-12180894Y7264844D01*
X-12180894Y7264844D02*
X-12066608Y7226749D01*
X-12066608Y7226749D02*
X-11990418Y7150559D01*
X-11990418Y7150559D02*
X-11952323Y7036273D01*
X-11952323Y7036273D02*
X-11952323Y6845797D01*
X-11952323Y6845797D02*
X-11990418Y6731511D01*
X-11990418Y6731511D02*
X-12066608Y6655320D01*
X-12066608Y6655320D02*
X-12142799Y6617225D01*
X-12142799Y6617225D02*
X-12142799Y6464844D01*
X-12142799Y6464844D02*
X-11952323Y6464844D01*
X-13476132Y8804844D02*
X-13742799Y9185797D01*
X-13933275Y8804844D02*
X-13933275Y9604844D01*
X-13933275Y9604844D02*
X-13628513Y9604844D01*
X-13628513Y9604844D02*
X-13552323Y9566749D01*
X-13552323Y9566749D02*
X-13514228Y9528654D01*
X-13514228Y9528654D02*
X-13476132Y9452463D01*
X-13476132Y9452463D02*
X-13476132Y9338178D01*
X-13476132Y9338178D02*
X-13514228Y9261987D01*
X-13514228Y9261987D02*
X-13552323Y9223892D01*
X-13552323Y9223892D02*
X-13628513Y9185797D01*
X-13628513Y9185797D02*
X-13933275Y9185797D01*
X-12714228Y8804844D02*
X-13171371Y8804844D01*
X-12942799Y8804844D02*
X-12942799Y9604844D01*
X-12942799Y9604844D02*
X-13018990Y9490559D01*
X-13018990Y9490559D02*
X-13095180Y9414368D01*
X-13095180Y9414368D02*
X-13171371Y9376273D01*
X-14342086Y12204844D02*
X-14799229Y12204844D01*
X-14570657Y12204844D02*
X-14570657Y13004844D01*
X-14570657Y13004844D02*
X-14646848Y12890559D01*
X-14646848Y12890559D02*
X-14723038Y12814368D01*
X-14723038Y12814368D02*
X-14799229Y12776273D01*
X-13846847Y13004844D02*
X-13770657Y13004844D01*
X-13770657Y13004844D02*
X-13694466Y12966749D01*
X-13694466Y12966749D02*
X-13656371Y12928654D01*
X-13656371Y12928654D02*
X-13618276Y12852463D01*
X-13618276Y12852463D02*
X-13580181Y12700082D01*
X-13580181Y12700082D02*
X-13580181Y12509606D01*
X-13580181Y12509606D02*
X-13618276Y12357225D01*
X-13618276Y12357225D02*
X-13656371Y12281035D01*
X-13656371Y12281035D02*
X-13694466Y12242940D01*
X-13694466Y12242940D02*
X-13770657Y12204844D01*
X-13770657Y12204844D02*
X-13846847Y12204844D01*
X-13846847Y12204844D02*
X-13923038Y12242940D01*
X-13923038Y12242940D02*
X-13961133Y12281035D01*
X-13961133Y12281035D02*
X-13999228Y12357225D01*
X-13999228Y12357225D02*
X-14037324Y12509606D01*
X-14037324Y12509606D02*
X-14037324Y12700082D01*
X-14037324Y12700082D02*
X-13999228Y12852463D01*
X-13999228Y12852463D02*
X-13961133Y12928654D01*
X-13961133Y12928654D02*
X-13923038Y12966749D01*
X-13923038Y12966749D02*
X-13846847Y13004844D01*
X-13084942Y13004844D02*
X-13008752Y13004844D01*
X-13008752Y13004844D02*
X-12932561Y12966749D01*
X-12932561Y12966749D02*
X-12894466Y12928654D01*
X-12894466Y12928654D02*
X-12856371Y12852463D01*
X-12856371Y12852463D02*
X-12818276Y12700082D01*
X-12818276Y12700082D02*
X-12818276Y12509606D01*
X-12818276Y12509606D02*
X-12856371Y12357225D01*
X-12856371Y12357225D02*
X-12894466Y12281035D01*
X-12894466Y12281035D02*
X-12932561Y12242940D01*
X-12932561Y12242940D02*
X-13008752Y12204844D01*
X-13008752Y12204844D02*
X-13084942Y12204844D01*
X-13084942Y12204844D02*
X-13161133Y12242940D01*
X-13161133Y12242940D02*
X-13199228Y12281035D01*
X-13199228Y12281035D02*
X-13237323Y12357225D01*
X-13237323Y12357225D02*
X-13275419Y12509606D01*
X-13275419Y12509606D02*
X-13275419Y12700082D01*
X-13275419Y12700082D02*
X-13237323Y12852463D01*
X-13237323Y12852463D02*
X-13199228Y12928654D01*
X-13199228Y12928654D02*
X-13161133Y12966749D01*
X-13161133Y12966749D02*
X-13084942Y13004844D01*
X-12475418Y12204844D02*
X-12475418Y13004844D01*
X-12399228Y12509606D02*
X-12170656Y12204844D01*
X-12170656Y12738178D02*
X-12475418Y12433416D01*
X-11865895Y12204844D02*
X-11675418Y12204844D01*
X-11675418Y12204844D02*
X-11675418Y12357225D01*
X-11675418Y12357225D02*
X-11751609Y12395320D01*
X-11751609Y12395320D02*
X-11827799Y12471511D01*
X-11827799Y12471511D02*
X-11865895Y12585797D01*
X-11865895Y12585797D02*
X-11865895Y12776273D01*
X-11865895Y12776273D02*
X-11827799Y12890559D01*
X-11827799Y12890559D02*
X-11751609Y12966749D01*
X-11751609Y12966749D02*
X-11637323Y13004844D01*
X-11637323Y13004844D02*
X-11484942Y13004844D01*
X-11484942Y13004844D02*
X-11370656Y12966749D01*
X-11370656Y12966749D02*
X-11294466Y12890559D01*
X-11294466Y12890559D02*
X-11256371Y12776273D01*
X-11256371Y12776273D02*
X-11256371Y12585797D01*
X-11256371Y12585797D02*
X-11294466Y12471511D01*
X-11294466Y12471511D02*
X-11370656Y12395320D01*
X-11370656Y12395320D02*
X-11446847Y12357225D01*
X-11446847Y12357225D02*
X-11446847Y12204844D01*
X-11446847Y12204844D02*
X-11256371Y12204844D01*
X-13161132Y15064844D02*
X-13427799Y15445797D01*
X-13618275Y15064844D02*
X-13618275Y15864844D01*
X-13618275Y15864844D02*
X-13313513Y15864844D01*
X-13313513Y15864844D02*
X-13237323Y15826749D01*
X-13237323Y15826749D02*
X-13199228Y15788654D01*
X-13199228Y15788654D02*
X-13161132Y15712463D01*
X-13161132Y15712463D02*
X-13161132Y15598178D01*
X-13161132Y15598178D02*
X-13199228Y15521987D01*
X-13199228Y15521987D02*
X-13237323Y15483892D01*
X-13237323Y15483892D02*
X-13313513Y15445797D01*
X-13313513Y15445797D02*
X-13618275Y15445797D01*
X-12856371Y15788654D02*
X-12818275Y15826749D01*
X-12818275Y15826749D02*
X-12742085Y15864844D01*
X-12742085Y15864844D02*
X-12551609Y15864844D01*
X-12551609Y15864844D02*
X-12475418Y15826749D01*
X-12475418Y15826749D02*
X-12437323Y15788654D01*
X-12437323Y15788654D02*
X-12399228Y15712463D01*
X-12399228Y15712463D02*
X-12399228Y15636273D01*
X-12399228Y15636273D02*
X-12437323Y15521987D01*
X-12437323Y15521987D02*
X-12894466Y15064844D01*
X-12894466Y15064844D02*
X-12399228Y15064844D01*
D11*
%TO.C,*%
X-9120000Y22620000D02*
X7120000Y22620000D01*
X7120000Y22620000D02*
X7120000Y15000000D01*
X7120000Y-1000000D02*
X7120000Y-1620000D01*
X7120000Y-1620000D02*
X5000000Y-1620000D01*
X-7000000Y-1620000D02*
X-9120000Y-1620000D01*
X-9120000Y-1620000D02*
X-9120000Y-1000000D01*
X-9120000Y15000000D02*
X-9120000Y22620000D01*
X-9120000Y15000000D02*
X-9730000Y15000000D01*
X-9120000Y22620000D02*
X7120000Y22620000D01*
X7120000Y22620000D02*
X7120000Y15300000D01*
X-9120000Y15300000D02*
X-9120000Y22620000D01*
X-11913700Y-13854200D02*
X-11913700Y-12594200D01*
X-11913700Y-7034200D02*
X-11913700Y-8294200D01*
X-15673700Y-13854200D02*
X-11913700Y-13854200D01*
X-17923700Y-7034200D02*
X-11913700Y-7034200D01*
X10503500Y7810000D02*
X10503500Y3090000D01*
X10503500Y3090000D02*
X16623500Y3090000D01*
X16623500Y3090000D02*
X16623500Y7810000D01*
X16623500Y7810000D02*
X10503500Y7810000D01*
X12263500Y7810000D02*
X12263500Y8010000D01*
X12263500Y8010000D02*
X11963500Y8010000D01*
X11963500Y8010000D02*
X11963500Y7810000D01*
X12263500Y7910000D02*
X11963500Y7910000D01*
X13063500Y7810000D02*
X13063500Y7200000D01*
X13063500Y7200000D02*
X11113500Y7200000D01*
X11113500Y7200000D02*
X11113500Y3700000D01*
X11113500Y3700000D02*
X16013500Y3700000D01*
X16013500Y3700000D02*
X16013500Y7200000D01*
X16013500Y7200000D02*
X14063500Y7200000D01*
X14063500Y7200000D02*
X14063500Y7810000D01*
X10503500Y6500000D02*
X11113500Y6500000D01*
X10503500Y5200000D02*
X11113500Y5200000D01*
X16623500Y6500000D02*
X16013500Y6500000D01*
X16623500Y5200000D02*
X16013500Y5200000D01*
X13463500Y3700000D02*
X13463500Y4200000D01*
X13463500Y4200000D02*
X13663500Y4200000D01*
X13663500Y4200000D02*
X13663500Y3700000D01*
X13563500Y3700000D02*
X13563500Y4200000D01*
X11453500Y8110000D02*
X10203500Y8110000D01*
X10203500Y8110000D02*
X10203500Y6860000D01*
X-6540000Y-24049200D02*
X-6540000Y-6269200D01*
X-6540000Y-24049200D02*
X21400000Y-24049200D01*
X21400000Y-24049200D02*
X21400000Y-6269200D01*
X-6540000Y-6269200D02*
X21400000Y-6269200D01*
X-13496400Y8380000D02*
X-13189200Y8380000D01*
X-13496400Y7620000D02*
X-13189200Y7620000D01*
X-13265100Y14522500D02*
X-12790500Y14522500D01*
X-13265100Y13477500D02*
X-12790500Y13477500D01*
%TD*%
M02*
